<svg width="617" height="317" viewBox="0 0 617 317" fill="none" xmlns="http://www.w3.org/2000/svg">
<path d="M66.3324 89.7661C93.1507 85.3821 104.456 99.49 101.389 120.355C99.1064 135.287 89.5845 149.23 73.572 157.01L90.369 196.696L53.6009 202.728L39.4072 165.283L33.4159 206.058L0 211.529L16.6544 97.9078L66.3681 89.7661H66.3324ZM58.9503 120.092L45.6838 122.267L42.9021 141.517L56.1686 139.342C62.4809 138.32 66.1898 134.892 67.2597 128.134C68.0442 122.366 65.2626 119.037 58.9503 120.092Z" fill="#FAFAFA"/>
<path d="M150.271 188.264C122.847 192.746 104.695 176.924 104.16 149.467C103.375 109.516 128.125 78.037 165.606 71.906C193.602 67.3242 211.611 82.7177 212.146 110.175C212.931 149.961 188.181 182.067 150.236 188.264H150.271ZM154.765 155.136C171.027 152.466 179.943 136.282 179.586 119.899C179.372 108.659 173.345 102.726 162.04 104.605C145.778 107.275 136.577 123.327 136.898 139.743C137.112 150.983 143.139 157.048 154.729 155.169L154.765 155.136Z" fill="#FAFAFA"/>
<path d="M280.076 53.9859C308.249 49.3712 324.868 64.2043 325.225 90.2776L289.99 96.046C287.886 89.058 282.216 85.7288 274.691 86.9813C263.386 88.8272 255.005 99.7708 252.865 114.835C250.619 129.931 256.218 138.568 267.523 136.722C275.047 135.502 281.895 130.129 286.245 122.053L321.48 116.285C313.099 143.809 291.31 164.905 263.172 169.519C230.505 174.859 214.064 154.225 218.986 120.405C223.907 86.5528 247.373 59.3588 280.04 54.0189L280.076 53.9859Z" fill="#FAFAFA"/>
<path d="M364.67 103.818L357.502 153.229L324.086 158.7L340.705 45.1116L374.157 39.6399L367.096 87.4684L404.72 34.6296L442.522 28.4326L397.658 88.8858L428.328 141.626L388.564 148.152L364.706 103.818H364.67Z" fill="#FAFAFA"/>
<path d="M518.55 43.5039L480.89 49.6679L478.893 63.7759L512.024 58.3371L508.03 85.1685L474.899 90.6073L472.51 106.66L510.169 100.496L506.068 128.877L434.993 140.512L451.611 26.9238L522.687 15.2881L518.55 43.5369V43.5039Z" fill="#FAFAFA"/>
<path d="M526.259 14.7013L616.022 0L611.885 28.2488L583.569 32.8965L571.052 118.236L537.636 123.708L550.118 38.3683L522.123 42.9501L526.259 14.7013Z" fill="#FAFAFA"/>
<path d="M186.609 287.48L198.092 209.029L167.779 214.007L164.427 237.08C169.313 243.772 172.237 251.913 172.415 261.143C172.701 275.976 166.032 290.447 155.048 301.39L152.729 316.915L212.179 307.159L215.781 282.7L186.645 287.48H186.609Z" fill="#FAFAFA"/>
<path d="M294.636 218.225L298.345 192.646L234.01 203.194L218.96 306.103L283.296 295.555L287.112 269.812L252.983 275.415L255.194 260.846L285.115 255.934L288.716 231.74L258.796 236.651L260.507 223.829L294.636 218.225Z" fill="#FAFAFA"/>
<path d="M370.698 180.772L335.784 186.508L285.393 295.218L317.168 290.01L324.23 273.693L356.397 268.419L358.929 283.154L390.847 277.913L370.734 180.739L370.698 180.772ZM335.142 248.147L348.124 218.185L352.617 245.28L335.142 248.147Z" fill="#FAFAFA"/>
<path d="M450.083 167.759L409.784 174.351L394.734 277.26L435.033 270.667C465.881 265.624 488.42 240.078 492.842 210.709C497.122 181.076 480.824 162.715 450.118 167.759H450.083ZM462.101 215.752C459.89 230.717 449.797 240.144 436.424 242.353L429.22 243.539L435.96 197.656L443.164 196.469C456.538 194.26 464.205 200.787 462.137 215.752H462.101Z" fill="#FAFAFA"/>
<path d="M577.662 177.743C579.73 156.944 563.218 147.616 540.929 151.274C517.57 155.098 500.88 169.997 501.308 191.752C501.879 220.595 540.43 212.222 540.68 224.88C540.751 228.143 538.148 230.351 535.009 230.846C529.767 231.703 527.484 229.231 527.877 223.264L495.709 228.538C493.676 251.381 510.687 259.259 534.973 255.271C559.795 251.217 573.953 234.834 573.596 216.606C573.025 187.896 534.546 193.928 534.332 181.963C534.26 178.831 536.578 176.557 539.61 176.062C543.533 175.403 545.958 177.611 545.137 183.083L577.697 177.743H577.662Z" fill="#FAFAFA"/>
<path d="M152.758 265.251C153.079 280.48 139.206 294.983 121.695 297.884C104.292 300.719 0.121655 293.962 0.0503299 290.27C-0.0209953 286.578 103.187 245.836 120.59 243.002C138.1 240.134 152.472 250.154 152.758 265.251Z" fill="#8967F3"/>
</svg>
