<svg width="1143" height="623" viewBox="0 0 1143 623" fill="none" xmlns="http://www.w3.org/2000/svg">
<path d="M123.753 176.369C173.438 167.76 194.383 195.464 188.701 236.437C184.472 265.76 166.831 293.14 137.165 308.416L168.285 386.35L100.165 398.196L73.8689 324.663L62.7689 404.733L0.860046 415.478L31.7154 192.357L123.819 176.369H123.753ZM110.076 235.92L85.4974 240.192L80.3439 277.994L104.922 273.721C116.617 271.715 123.488 264.983 125.471 251.714C126.924 240.386 121.771 233.848 110.076 235.92Z" fill="#303030"/>
<path d="M279.265 369.791C228.456 378.595 194.826 347.525 193.835 293.605C192.381 215.154 238.235 153.337 307.676 141.298C359.542 132.3 392.908 162.529 393.899 216.448C395.353 294.576 349.499 357.622 279.199 369.791H279.265ZM287.59 304.739C317.719 299.496 334.237 267.714 333.576 235.543C333.179 213.471 322.013 201.819 301.069 205.509C270.94 210.752 253.894 242.275 254.488 274.51C254.885 296.583 266.051 308.493 287.524 304.803L287.59 304.739Z" fill="#303030"/>
<path d="M519.751 106.108C571.947 97.0454 602.736 126.174 603.397 177.374L538.118 188.702C534.22 174.979 523.715 168.442 509.774 170.901C488.829 174.526 473.302 196.016 469.338 225.598C465.176 255.243 475.549 272.202 496.493 268.578C510.434 266.183 523.12 255.632 531.181 239.773L596.459 228.446C580.933 282.494 540.563 323.921 488.433 332.983C427.911 343.469 397.452 302.949 406.57 236.537C415.688 170.06 459.163 116.658 519.684 106.172L519.751 106.108Z" fill="#303030"/>
<path d="M676.477 203.963L663.197 300.992L601.288 311.737L632.077 88.6802L694.052 77.9352L680.97 171.857L750.675 68.0963L820.711 55.9272L737.593 174.64L794.415 278.207L720.745 291.023L676.543 203.963H676.477Z" fill="#303030"/>
<path d="M961.567 85.5229L891.796 97.6272L888.096 125.331L949.476 114.651L942.076 167.34L880.696 178.021L876.269 209.544L946.04 197.44L938.442 253.171L806.762 276.021L837.551 52.9641L969.231 30.1147L961.567 85.5876V85.5229Z" fill="#303030"/>
<path d="M975.85 28.9625L1142.15 0.0932617L1134.49 55.5661L1082.03 64.6929L1058.84 232.277L996.926 243.022L1020.05 75.438L968.185 84.4353L975.85 28.9625Z" fill="#303030"/>
<path d="M346.587 564.626L367.862 410.57L311.701 420.344L305.49 465.655C314.542 478.795 319.96 494.783 320.29 512.907C320.819 542.035 308.463 570.451 288.113 591.941L283.819 622.429L393.96 603.269L400.633 555.24L346.653 564.626H346.587Z" fill="#303030"/>
<path d="M546.726 428.628L553.598 378.398L434.405 399.112L406.523 601.196L525.716 580.483L532.785 529.929L469.555 540.933L473.652 512.323L529.085 502.678L535.759 455.167L480.325 464.812L483.496 439.632L546.726 428.628Z" fill="#303030"/>
<path d="M687.644 355.081L622.96 366.344L529.602 579.821L588.471 569.594L601.553 537.553L661.15 527.196L665.841 556.13L724.974 545.838L687.71 355.017L687.644 355.081ZM621.771 487.388L645.821 428.549L654.146 481.756L621.771 487.388Z" fill="#303030"/>
<path d="M834.719 329.526L760.058 342.472L732.176 544.556L806.837 531.611C863.988 521.707 905.745 471.542 913.938 413.868C921.867 355.677 891.672 319.623 834.785 329.526H834.719ZM856.985 423.772C852.888 453.159 834.19 471.671 809.413 476.008L796.067 478.339L808.554 388.236L821.901 385.905C846.678 381.568 860.883 394.385 857.051 423.772H856.985Z" fill="#303030"/>
<path d="M1071.08 349.133C1074.91 308.289 1044.32 289.971 1003.03 297.155C959.751 304.664 928.83 333.922 929.623 376.643C930.68 433.281 1002.1 416.84 1002.57 441.696C1002.7 448.104 997.874 452.441 992.06 453.412C982.348 455.095 978.119 450.24 978.846 438.524L919.25 448.881C915.483 493.738 946.999 509.208 991.994 501.376C1037.98 493.414 1064.21 461.244 1063.55 425.449C1062.49 369.07 991.201 380.915 990.805 357.418C990.673 351.269 994.967 346.803 1000.58 345.832C1007.85 344.537 1012.34 348.874 1010.82 359.619L1071.15 349.133H1071.08Z" fill="#303030"/>
<path d="M283.871 520.975C284.466 550.879 258.764 579.36 226.323 585.056C194.08 590.623 1.08558 577.354 0.953438 570.104C0.821295 562.854 192.032 482.849 224.275 477.282C256.716 471.651 283.342 491.329 283.871 520.975Z" fill="#FAFAFA"/>
</svg>
