<svg width="655" height="403" viewBox="0 0 655 403" fill="none" xmlns="http://www.w3.org/2000/svg">
<path d="M653.012 103.153C662.383 34.6902 627.841 -11.7819 545.899 2.62557L394.111 29.3822L379.182 138.792C383.65 141.067 387.9 143.775 391.822 147.025C408.712 160.891 418.192 180.931 418.628 203.68V205.196C418.628 243.435 393.675 279.4 357.716 297.165L343.333 402.784L445.433 384.693L463.739 250.802L507.107 373.86L619.45 354.037L568.019 223.72C616.944 198.047 646.147 152.224 653.012 103.153ZM548.732 128.826C545.463 151.033 534.131 162.191 514.844 165.657L474.309 172.698L482.808 109.436L523.343 102.394C542.63 98.9278 551.129 109.869 548.732 128.826Z" fill="#FAFAFA"/>
<path d="M389.237 205.516C389.782 234.006 372.674 261.737 347.394 278.311C336.607 285.461 324.403 290.552 311.436 292.827C271.01 299.977 56.8934 285.678 0.0136719 275.928C53.4066 247.33 269.048 155.794 311.327 148.32C330.832 144.853 349.574 148.32 363.848 157.961C365.374 158.936 366.899 160.019 368.316 161.21C381.5 171.935 388.91 187.75 389.237 205.516Z" fill="#8967F3"/>
</svg>
