<svg width="542" height="295" viewBox="0 0 542 295" fill="none" xmlns="http://www.w3.org/2000/svg">
<path d="M59.1898 83.5797C82.7429 79.4999 92.6715 92.6288 89.9779 112.046C87.9734 125.942 79.6108 138.917 65.5479 146.156L80.2999 183.089L48.0084 188.702L35.5428 153.856L30.281 191.801L0.933594 196.893L15.5603 91.1564L59.2212 83.5797H59.1898ZM52.7065 111.801L41.0552 113.825L38.6122 131.739L50.2635 129.715C55.8072 128.764 59.0646 125.574 60.0042 119.285C60.6932 113.917 58.2502 110.819 52.7065 111.801Z" fill="#303030"/>
<path d="M132.909 175.242C108.824 179.414 92.8817 164.69 92.4119 139.138C91.7229 101.96 113.459 72.6654 146.377 66.9598C170.964 62.696 186.781 77.0212 187.251 102.573C187.94 139.598 166.203 169.475 132.878 175.242H132.909ZM136.856 144.414C151.138 141.929 158.968 126.868 158.655 111.622C158.467 101.162 153.174 95.6408 143.245 97.3893C128.963 99.874 120.882 114.813 121.164 130.089C121.352 140.549 126.645 146.193 136.824 144.445L136.856 144.414Z" fill="#303030"/>
<path d="M246.909 50.2834C271.652 45.9889 286.248 59.7926 286.561 84.0564L255.616 89.4245C253.768 82.9214 248.788 79.8233 242.18 80.9889C232.251 82.7067 224.891 92.8908 223.011 106.909C221.038 120.958 225.955 128.995 235.884 127.277C242.493 126.142 248.506 121.142 252.327 113.627L283.272 108.259C275.912 133.872 256.775 153.504 232.063 157.799C203.373 162.768 188.935 143.566 193.257 112.093C197.579 80.5901 218.188 55.2834 246.878 50.3141L246.909 50.2834Z" fill="#303030"/>
<path d="M321.204 96.6573L314.909 142.639L285.562 147.731L300.157 42.0254L329.536 36.9334L323.334 81.4426L356.377 32.2708L389.577 26.5039L350.176 82.7616L377.112 131.841L342.189 137.915L321.236 96.6573H321.204Z" fill="#303030"/>
<path d="M456.349 40.5282L423.274 46.2644L421.52 59.3932L450.617 54.3319L447.109 79.3012L418.013 84.3625L415.914 99.3012L448.989 93.565L445.387 119.976L382.965 130.804L397.56 25.0987L459.982 14.2705L456.349 40.5588V40.5282Z" fill="#303030"/>
<path d="M463.12 13.7249L541.953 0.0439453L538.32 26.3323L513.452 30.6574L502.458 110.075L473.111 115.167L484.073 35.7495L459.486 40.0133L463.12 13.7249Z" fill="#303030"/>
<path d="M164.822 267.574L174.908 194.567L148.285 199.199L145.341 220.672C149.632 226.899 152.2 234.475 152.357 243.064C152.607 256.868 146.75 270.334 137.104 280.518L135.068 294.966L187.279 285.886L190.443 263.126L164.854 267.574H164.822Z" fill="#303030"/>
<path d="M259.697 203.124L262.954 179.32L206.452 189.136L193.234 284.903L249.737 275.087L253.088 251.13L223.114 256.345L225.056 242.787L251.334 238.216L254.497 215.701L228.219 220.271L229.723 208.339L259.697 203.124Z" fill="#303030"/>
<path d="M326.498 168.271L295.835 173.608L251.579 274.774L279.486 269.927L285.687 254.743L313.938 249.835L316.162 263.547L344.194 258.67L326.529 168.24L326.498 168.271ZM295.271 230.97L306.672 203.087L310.618 228.302L295.271 230.97Z" fill="#303030"/>
<path d="M396.217 156.161L360.825 162.296L347.607 258.063L383 251.928C410.092 247.235 429.887 223.462 433.77 196.13C437.529 168.554 423.215 151.468 396.248 156.161H396.217ZM406.772 200.824C404.83 214.75 395.966 223.523 384.221 225.578L377.894 226.682L383.814 183.983L390.141 182.879C401.886 180.824 408.62 186.897 406.803 200.824H406.772Z" fill="#303030"/>
<path d="M508.263 165.452C510.079 146.096 495.578 137.415 476.003 140.82C455.488 144.378 440.83 158.243 441.205 178.489C441.707 205.329 475.564 197.538 475.783 209.317C475.846 212.354 473.56 214.409 470.803 214.869C466.199 215.667 464.195 213.366 464.539 207.814L436.288 212.722C434.503 233.98 449.443 241.311 470.772 237.599C492.571 233.826 505.005 218.581 504.692 201.618C504.191 174.9 470.396 180.513 470.208 169.378C470.146 166.464 472.181 164.348 474.844 163.888C478.289 163.274 480.419 165.329 479.698 170.421L508.294 165.452H508.263Z" fill="#303030"/>
<path d="M135.093 246.887C135.375 261.059 123.191 274.556 107.812 277.255C92.5281 279.893 1.0407 273.605 0.97806 270.169C0.915419 266.734 91.5571 228.82 106.842 226.181C122.22 223.513 134.842 232.838 135.093 246.887Z" fill="#8967F3"/>
</svg>
