<svg width="2343" height="1224" viewBox="0 0 2343 1224" fill="none" xmlns="http://www.w3.org/2000/svg">
<g filter="url(#filter0_d_350_879)">
<path d="M2267.2 349.538C2292.14 167.327 2200.21 43.6429 1982.13 81.9879L1578.14 153.2L1538.41 444.392C1550.3 450.446 1561.61 457.654 1572.05 466.303C1617 503.207 1642.24 556.544 1643.4 617.089V621.125C1643.4 722.898 1576.98 818.616 1481.28 865.899L1443 1147L1714.74 1098.85L1763.46 742.503L1878.88 1070.02L2177.88 1017.26L2041 670.426C2171.21 602.097 2248.93 480.142 2267.2 349.538ZM1989.67 417.867C1980.97 476.971 1950.8 506.667 1899.47 515.892L1791.59 534.632L1814.21 366.26L1922.09 347.52C1973.42 338.294 1996.05 367.413 1989.67 417.867Z" fill="#1B1C1F"/>
<path d="M1990.22 417.937L1990.21 417.948C1985.85 447.577 1976.1 469.894 1960.96 485.965C1945.81 502.037 1925.32 511.81 1899.57 516.439L1899.57 516.439L1791.68 535.179C1791.51 535.21 1791.33 535.155 1791.2 535.032C1791.08 534.91 1791.02 534.734 1791.04 534.559L1813.66 366.186C1813.69 365.946 1813.88 365.755 1814.12 365.713L1922 346.974L1990.22 417.937ZM1990.22 417.937C1993.42 392.638 1989.36 372.548 1977.93 359.941M1990.22 417.937L1977.93 359.941M1977.93 359.941C1966.48 347.314 1947.77 342.342 1922 346.973L1977.93 359.941ZM2040.48 670.63L2177.11 1016.83L1879.25 1069.39L1763.98 742.319C1763.9 742.077 1763.66 741.925 1763.4 741.951C1763.15 741.977 1762.94 742.174 1762.91 742.428L1714.24 1098.38L1443.65 1146.32L1481.79 866.266C1577.51 818.858 1643.95 723.045 1643.95 621.125L1643.95 617.089L1643.95 617.078C1642.79 556.379 1617.49 502.887 1572.41 465.876C1562.04 457.283 1550.81 450.11 1539.02 444.077L1578.64 153.676L1982.22 82.5345C2091.16 63.3804 2168.45 84.7161 2215.4 133.44C2262.36 182.175 2279.11 258.449 2266.65 349.463C2248.41 479.899 2170.79 601.693 2040.74 669.934C2040.49 670.066 2040.38 670.366 2040.48 670.63Z" stroke="url(#paint0_linear_350_879)" stroke-width="1.11" stroke-linejoin="round"/>
</g>
<g filter="url(#filter1_d_350_879)">
<path d="M1561.96 617.106C1563.66 705.294 1510.22 791.134 1431.24 842.436C1397.54 864.567 1359.41 880.327 1318.9 887.368C1192.61 909.499 523.696 865.238 346 835.06C512.803 746.537 1186.48 463.198 1318.56 440.061C1379.5 429.331 1438.05 440.061 1482.64 469.904C1487.41 472.922 1492.18 476.275 1496.6 479.963C1537.79 513.159 1560.94 562.115 1561.96 617.106Z" fill="#1B1C1F"/>
<path d="M1559.27 617.156V617.158C1560.95 704.233 1508.14 789.275 1429.78 840.18L1429.76 840.188C1396.35 862.13 1358.57 877.743 1318.44 884.718L1318.44 884.718C1287.17 890.198 1221.95 891.595 1138.65 890.085C1055.45 888.577 954.478 884.178 851.886 878.144C652.525 866.418 447.235 848.528 354.362 833.709C441.996 788.176 646.159 698.008 846.328 615.528C949.2 573.139 1050.97 532.8 1135.27 501.615C1219.66 470.395 1286.29 448.445 1319.03 442.711L1319.03 442.711C1379.39 432.082 1437.21 442.74 1481.15 472.14L1481.18 472.159L1481.2 472.177C1485.9 475.149 1490.56 478.434 1494.88 482.03L1494.9 482.044L1494.91 482.058C1535.45 514.726 1558.26 562.915 1559.27 617.156Z" stroke="url(#paint1_linear_350_879)" stroke-width="5.38053"/>
</g>
<defs>
<filter id="filter0_d_350_879" x="1371.88" y="0.559997" width="970.424" height="1214.24" filterUnits="userSpaceOnUse" color-interpolation-filters="sRGB">
<feFlood flood-opacity="0" result="BackgroundImageFix"/>
<feColorMatrix in="SourceAlpha" type="matrix" values="0 0 0 0 0 0 0 0 0 0 0 0 0 0 0 0 0 0 127 0" result="hardAlpha"/>
<feOffset dy="-3.32"/>
<feGaussianBlur stdDeviation="35.56"/>
<feComposite in2="hardAlpha" operator="out"/>
<feColorMatrix type="matrix" values="0 0 0 0 0.423529 0 0 0 0 0.505882 0 0 0 0 0.976471 0 0 0 0.3 0"/>
<feBlend mode="normal" in2="BackgroundImageFix" result="effect1_dropShadow_350_879"/>
<feBlend mode="normal" in="SourceGraphic" in2="effect1_dropShadow_350_879" result="shape"/>
</filter>
<filter id="filter1_d_350_879" x="0.0318298" y="73.8902" width="1907.94" height="1149.28" filterUnits="userSpaceOnUse" color-interpolation-filters="sRGB">
<feFlood flood-opacity="0" result="BackgroundImageFix"/>
<feColorMatrix in="SourceAlpha" type="matrix" values="0 0 0 0 0 0 0 0 0 0 0 0 0 0 0 0 0 0 127 0" result="hardAlpha"/>
<feOffset dy="-16.1416"/>
<feGaussianBlur stdDeviation="172.984"/>
<feComposite in2="hardAlpha" operator="out"/>
<feColorMatrix type="matrix" values="0 0 0 0 0.422265 0 0 0 0 0.506998 0 0 0 0 0.975521 0 0 0 0.3 0"/>
<feBlend mode="normal" in2="BackgroundImageFix" result="effect1_dropShadow_350_879"/>
<feBlend mode="normal" in="SourceGraphic" in2="effect1_dropShadow_350_879" result="shape"/>
</filter>
<linearGradient id="paint0_linear_350_879" x1="1501.52" y1="611" x2="2271.52" y2="555.5" gradientUnits="userSpaceOnUse">
<stop stop-color="#8967F3"/>
<stop offset="1" stop-color="#7AF5D0"/>
</linearGradient>
<linearGradient id="paint1_linear_350_879" x1="3077.33" y1="612.854" x2="1413.5" y2="1942.21" gradientUnits="userSpaceOnUse">
<stop stop-color="#39F1C6"/>
<stop offset="1" stop-color="#8967F3"/>
</linearGradient>
</defs>
</svg>
