<svg width="655" height="403" viewBox="0 0 655 403" fill="none" xmlns="http://www.w3.org/2000/svg">
<g opacity="0.1">
<path d="M652.998 103.153C662.369 34.6902 627.827 -11.7818 545.885 2.62558L394.097 29.3822L379.169 138.792C383.636 141.067 387.886 143.775 391.809 147.025C408.698 160.891 418.178 180.931 418.614 203.68V205.196C418.614 243.435 393.661 279.4 357.703 297.165L343.319 402.784L445.419 384.693L463.726 250.802L507.094 373.86L619.437 354.037L568.005 223.72C616.931 198.047 646.133 152.224 652.998 103.153ZM548.718 128.826C545.449 151.033 534.117 162.191 514.83 165.657L474.295 172.698L482.795 109.436L523.329 102.394C542.616 98.9278 551.116 109.869 548.718 128.826Z" fill="#DADEE7"/>
<path d="M389.223 205.516C389.768 234.006 372.661 261.737 347.381 278.311C336.593 285.461 324.389 290.552 311.422 292.827C270.996 299.977 56.8798 285.678 0 275.928C53.3929 247.33 269.035 155.794 311.313 148.32C330.818 144.853 349.56 148.32 363.834 157.961C365.36 158.936 366.885 160.019 368.302 161.21C381.487 171.935 388.896 187.75 389.223 205.516Z" fill="#DADEE7"/>
</g>
</svg>
