<svg xmlns="http://www.w3.org/2000/svg" viewBox="0 0 87.3 78" role="img" aria-label="Google Drive">
  <path fill="#0066DA" d="M6.6 66.85l3.85 6.65c.8 1.4 1.95 2.5 3.3 3.3L27.5 53H0c0 1.55.4 3.1 1.2 4.5z"/>
  <path fill="#00AC47" d="M43.65 25L29.9 1.2c-1.35.8-2.5 1.9-3.3 3.3L1.2 48.4c-.8 1.4-1.2 2.95-1.2 4.5h27.5z"/>
  <path fill="#EA4335" d="M73.55 76.8c1.35-.8 2.5-1.9 3.3-3.3l1.6-2.75 7.65-13.25c.8-1.4 1.2-2.95 1.2-4.5H59.85l5.85 11.5z"/>
  <path fill="#00832D" d="M43.65 25L57.4 1.2C56.05.4 54.5 0 52.9 0H34.4c-1.6 0-3.15.45-4.5 1.2z"/>
  <path fill="#2684FC" d="M59.85 53H27.45L13.7 76.8c1.35.8 2.9 1.2 4.5 1.2h50.95c1.6 0 3.15-.45 4.5-1.2z"/>
  <path fill="#FFBA00" d="M73.4 26.5L60.65 4.5c-.8-1.4-1.95-2.5-3.3-3.3L43.65 25l16.2 28h27.45c0-1.55-.4-3.1-1.2-4.5z"/>
</svg>
