<svg xmlns="http://www.w3.org/2000/svg" viewBox="0 0 24 24" role="img" aria-label="Slack">
  <path fill="#E01E5A" d="M5.042 15.165a2.528 2.528 0 0 1-2.52 2.523A2.528 2.528 0 0 1 0 15.165a2.527 2.527 0 0 1 2.522-2.52h2.52v2.52zm1.273 0a2.527 2.527 0 0 1 2.52-2.52 2.527 2.527 0 0 1 2.523 2.52v6.313A2.528 2.528 0 0 1 8.835 24a2.528 2.528 0 0 1-2.52-2.522v-6.313z"/>
  <path fill="#36C5F0" d="M8.835 5.042a2.528 2.528 0 0 1-2.52-2.52A2.528 2.528 0 0 1 8.835 0a2.528 2.528 0 0 1 2.521 2.522v2.52H8.835zm0 1.273a2.527 2.527 0 0 1 2.521 2.52 2.527 2.527 0 0 1-2.521 2.523H2.522A2.528 2.528 0 0 1 0 8.835a2.528 2.528 0 0 1 2.522-2.52h6.313z"/>
  <path fill="#2EB67D" d="M18.956 8.835a2.528 2.528 0 0 1 2.522-2.52A2.528 2.528 0 0 1 24 8.835a2.528 2.528 0 0 1-2.522 2.522h-2.522v-2.52zm-1.273 0a2.527 2.527 0 0 1-2.522 2.522 2.527 2.527 0 0 1-2.522-2.52V2.522A2.527 2.527 0 0 1 15.161 0a2.528 2.528 0 0 1 2.522 2.522v6.313z"/>
  <path fill="#ECB22E" d="M15.165 18.956a2.528 2.528 0 0 1 2.521 2.522A2.528 2.528 0 0 1 15.165 24a2.527 2.527 0 0 1-2.522-2.522v-2.522h2.522zm0-1.273a2.527 2.527 0 0 1-2.522-2.522 2.527 2.527 0 0 1 2.522-2.522h6.313A2.527 2.527 0 0 1 24 15.161a2.528 2.528 0 0 1-2.522 2.522h-6.313z"/>
</svg>
